<svg width="854" height="854" viewBox="0 0 854 854" fill="none" xmlns="http://www.w3.org/2000/svg">
<rect width="854" height="854" rx="100" fill="url(#paint0_linear_18_2)"/>
<path d="M225.75 513.25C255.799 494.048 290.715 483.845 326.375 483.845C362.035 483.845 396.951 494.048 427 513.25C457.049 532.452 491.965 542.655 527.625 542.655C563.285 542.655 598.201 532.452 628.25 513.25" stroke="white" stroke-width="57" stroke-linecap="round" stroke-linejoin="round"/>
<path d="M225.75 340.75C255.799 321.548 290.715 311.345 326.375 311.345C362.035 311.345 396.951 321.548 427 340.75C457.049 359.952 491.965 370.155 527.625 370.155C563.285 370.155 598.201 359.952 628.25 340.75" stroke="white" stroke-width="57" stroke-linecap="round" stroke-linejoin="round"/>
<defs>
<linearGradient id="paint0_linear_18_2" x1="817" y1="-1.29893e-05" x2="-24.5" y2="938.5" gradientUnits="userSpaceOnUse">
<stop stop-color="#4B4B4B"/>
<stop offset="1"/>
</linearGradient>
</defs>
</svg>
