<svg width="940" height="940" viewBox="0 0 940 940" fill="none" xmlns="http://www.w3.org/2000/svg">
<g filter="url(#filter0_d_18_2)">
<rect x="43" y="43" width="854" height="854" rx="200" fill="#FBBF24"/>
<rect x="65" y="65" width="810" height="810" rx="178" stroke="black" stroke-width="44"/>
<path d="M312.833 514.5C309.104 514.514 305.447 513.334 302.288 511.095C299.129 508.857 296.598 505.652 294.988 501.854C293.378 498.056 292.756 493.821 293.194 489.639C293.631 485.458 295.111 481.502 297.461 478.233L492.573 251.283C494.037 249.375 496.031 248.086 498.229 247.628C500.427 247.169 502.698 247.567 504.669 248.757C506.64 249.947 508.194 251.859 509.076 254.177C509.958 256.496 510.115 259.084 509.522 261.518L471.682 395.463C470.567 398.834 470.192 402.461 470.59 406.031C470.989 409.602 472.149 413.011 473.97 415.964C475.792 418.918 478.221 421.328 481.049 422.989C483.877 424.65 487.02 425.512 490.208 425.5H628.167C631.896 425.486 635.553 426.666 638.711 428.905C641.87 431.143 644.402 434.348 646.011 438.146C647.621 441.944 648.243 446.179 647.806 450.361C647.368 454.542 645.889 458.498 643.539 461.768L448.427 688.718C446.963 690.625 444.968 691.914 442.771 692.372C440.573 692.831 438.302 692.433 436.331 691.243C434.36 690.053 432.806 688.141 431.924 685.823C431.042 683.504 430.885 680.916 431.477 678.483L469.317 544.538C470.433 541.166 470.808 537.539 470.409 533.969C470.011 530.398 468.851 526.989 467.029 524.036C465.208 521.082 462.779 518.672 459.95 517.011C457.122 515.35 453.979 514.488 450.792 514.5H312.833Z" fill="#0A0A0A" stroke="#0A0A0A" stroke-width="26" stroke-linecap="round" stroke-linejoin="round"/>
</g>
<defs>
<filter id="filter0_d_18_2" x="0" y="0" width="940" height="940" filterUnits="userSpaceOnUse" color-interpolation-filters="sRGB">
<feFlood flood-opacity="0" result="BackgroundImageFix"/>
<feColorMatrix in="SourceAlpha" type="matrix" values="0 0 0 0 0 0 0 0 0 0 0 0 0 0 0 0 0 0 127 0" result="hardAlpha"/>
<feMorphology radius="39" operator="dilate" in="SourceAlpha" result="effect1_dropShadow_18_2"/>
<feOffset/>
<feGaussianBlur stdDeviation="2"/>
<feComposite in2="hardAlpha" operator="out"/>
<feColorMatrix type="matrix" values="0 0 0 0 1 0 0 0 0 1 0 0 0 0 1 0 0 0 1 0"/>
<feBlend mode="normal" in2="BackgroundImageFix" result="effect1_dropShadow_18_2"/>
<feBlend mode="normal" in="SourceGraphic" in2="effect1_dropShadow_18_2" result="shape"/>
</filter>
</defs>
</svg>
