<svg width="854" height="854" viewBox="0 0 854 854" fill="none" xmlns="http://www.w3.org/2000/svg">
<rect x="22" y="22" width="810" height="810" rx="278" fill="#FBBF24"/>
<rect x="22" y="22" width="810" height="810" rx="278" stroke="black" stroke-width="44"/>
<path d="M269.833 471.5C266.104 471.514 262.447 470.334 259.288 468.095C256.129 465.857 253.598 462.652 251.988 458.854C250.378 455.056 249.756 450.821 250.194 446.639C250.631 442.458 252.111 438.502 254.461 435.233L449.573 208.283C451.037 206.375 453.031 205.086 455.229 204.628C457.427 204.169 459.698 204.567 461.669 205.757C463.64 206.947 465.194 208.859 466.076 211.177C466.958 213.496 467.115 216.084 466.522 218.518L428.682 352.463C427.567 355.834 427.192 359.461 427.59 363.031C427.989 366.602 429.149 370.011 430.97 372.964C432.792 375.918 435.221 378.328 438.049 379.989C440.877 381.65 444.02 382.512 447.208 382.5H585.167C588.896 382.486 592.553 383.666 595.711 385.905C598.87 388.143 601.402 391.348 603.011 395.146C604.621 398.944 605.243 403.179 604.806 407.361C604.368 411.542 602.889 415.498 600.539 418.768L405.427 645.718C403.963 647.625 401.968 648.914 399.771 649.372C397.573 649.831 395.302 649.433 393.331 648.243C391.36 647.053 389.806 645.141 388.924 642.823C388.042 640.504 387.885 637.916 388.477 635.483L426.317 501.538C427.433 498.166 427.808 494.539 427.409 490.969C427.011 487.398 425.851 483.989 424.029 481.036C422.208 478.082 419.779 475.672 416.95 474.011C414.122 472.35 410.979 471.488 407.792 471.5H269.833Z" fill="black" stroke="black" stroke-width="26" stroke-linecap="round" stroke-linejoin="round"/>
</svg>
